<svg class="svg-logo" width="70" height="26" viewBox="0 0 70 26" fill="black" xmlns="http://www.w3.org/2000/svg" preserveAspectRatio="xMidYMin meet">
  <path d="M69.9999 8.01672H54.418V11.0789H69.9999V8.01672Z"></path>
  <path d="M69.9999 14.29H54.418V17.3522H69.9999V14.29Z"></path>
  <path d="M13.7827 4.62202V6.33089C12.5946 5.06931 10.5351 4.27795 8.3398 4.27795C2.95344 4.27795 0 8.02829 0 12.5012C0 16.8593 2.90818 20.7244 8.3398 20.7244C10.5803 20.7244 12.5267 19.9674 13.7827 18.5223C13.7827 19.0843 13.7827 20.1968 13.7827 20.1968H17.1322V4.62202H13.7827ZM8.70191 17.7883C5.49952 17.7883 3.51924 15.7583 3.51924 12.5012C3.51924 9.94359 4.87714 7.21399 8.70191 7.21399C12.5606 7.21399 13.9412 9.94359 13.9412 12.5012C13.9412 15.7583 11.9382 17.7883 8.70191 17.7883Z"></path>
  <path d="M30.8924 7.38597H26.6376V16.412C26.6376 17.0887 26.8866 17.7883 28.6745 17.7883C29.229 17.7883 29.8174 17.7309 30.5869 17.5933L30.8924 17.5474V20.4835L30.6774 20.5179C29.7269 20.6899 28.7084 20.7243 27.4637 20.7243C24.7366 20.7243 23.2881 19.3939 23.2881 16.8937V7.38597H19.7236V4.62197H23.2881V0H26.6376V4.62197H30.8924V7.38597Z"></path>
  <path d="M42.7399 4.27795C40.5447 4.27795 38.4965 5.06931 37.297 6.33089V4.62202H33.9475V26.0001H37.297V18.66C38.4852 19.933 40.4994 20.7129 42.7399 20.7129C48.1716 20.7129 51.0797 16.8479 51.0797 12.4897C51.0684 8.02829 48.1263 4.27795 42.7399 4.27795ZM42.3665 17.7883C39.1302 17.7883 37.1273 15.7583 37.1273 12.5012C37.1273 9.94359 38.5078 7.21399 42.3665 7.21399C46.1913 7.21399 47.5492 9.94359 47.5492 12.5012C47.5492 15.7583 45.5689 17.7883 42.3665 17.7883Z"></path>
</svg>