<svg width="23" height="21" viewBox="0 0 23 21" fill="none" xmlns="http://www.w3.org/2000/svg">
<path d="M9.78149 1.96753L1.26935 16.1779C1.09385 16.4818 1.00099 16.8264 1.00001 17.1774C0.999025 17.5283 1.08996 17.8734 1.26375 18.1783C1.43755 18.4832 1.68815 18.7373 1.99063 18.9153C2.29311 19.0933 2.63692 19.189 2.98786 19.1928H20.0121C20.3631 19.189 20.7069 19.0933 21.0094 18.9153C21.3118 18.7373 21.5625 18.4832 21.7362 18.1783C21.91 17.8734 22.001 17.5283 22 17.1774C21.999 16.8264 21.9061 16.4818 21.7306 16.1779L13.2185 1.96753C13.0393 1.67218 12.7871 1.42798 12.4861 1.25851C12.1851 1.08903 11.8454 1 11.5 1C11.1546 1 10.8149 1.08903 10.5139 1.25851C10.2129 1.42798 9.96065 1.67218 9.78149 1.96753V1.96753Z" stroke="#FEBB30" stroke-width="2" stroke-linecap="round" stroke-linejoin="round"/>
<path d="M11.5 7.13281V11.1527" stroke="#FEBB30" stroke-width="2" stroke-linecap="round" stroke-linejoin="round"/>
<path d="M11.5 15.1719H11.5091" stroke="#FEBB30" stroke-width="2" stroke-linecap="round" stroke-linejoin="round"/>
</svg>
