<svg width="23" height="16" viewBox="0 0 23 16" fill="none" xmlns="http://www.w3.org/2000/svg">
<path d="M15.6719 9.12988C17.0419 10.0599 18.0019 11.3199 18.0019 12.9999V15.9999H22.0019V12.9999C22.0019 10.8199 18.4319 9.52988 15.6719 9.12988Z" fill="#284D62"/>
<path d="M14.0019 8C16.2119 8 18.0019 6.21 18.0019 4C18.0019 1.79 16.2119 0 14.0019 0C13.5319 0 13.0919 0.0999998 12.6719 0.24C13.5019 1.27 14.0019 2.58 14.0019 4C14.0019 5.42 13.5019 6.73 12.6719 7.76C13.0919 7.9 13.5319 8 14.0019 8Z" fill="#284D62"/>
<path d="M8 8C10.21 8 12 6.21 12 4C12 1.79 10.21 0 8 0C5.79 0 4 1.79 4 4C4 6.21 5.79 8 8 8ZM8 2C9.1 2 10 2.9 10 4C10 5.1 9.1 6 8 6C6.9 6 6 5.1 6 4C6 2.9 6.9 2 8 2Z" fill="#284D62"/>
<path d="M8 9C5.33 9 0 10.34 0 13V16H16V13C16 10.34 10.67 9 8 9ZM14 14H2V13.01C2.2 12.29 5.3 11 8 11C10.7 11 13.8 12.29 14 13V14Z" fill="#284D62"/>
</svg>
