<svg width="17" height="17" viewBox="0 0 17 17" fill="none" xmlns="http://www.w3.org/2000/svg">
<path d="M12.75 10.5C12.3125 10.5 12 10.8438 12 11.25V14.75C12 14.9062 11.875 15 11.75 15H2.25C2.09375 15 2 14.9062 2 14.75V5.25C2 5.125 2.09375 5 2.25 5H5.75C6.15625 5 6.5 4.6875 6.5 4.25C6.5 3.84375 6.15625 3.5 5.75 3.5H2.25C1.28125 3.5 0.5 4.3125 0.5 5.25V14.75C0.5 15.7188 1.28125 16.5 2.25 16.5H11.75C12.6875 16.5 13.5 15.7188 13.5 14.75V11.25C13.5 10.8438 13.1562 10.5 12.75 10.5ZM15.75 0.5H10.5C10.0625 0.5 9.75 0.84375 9.75 1.25C9.75 1.6875 10.0625 2 10.5 2H13.9375L6.21875 9.71875C5.90625 10.0312 5.90625 10.5 6.21875 10.7812C6.34375 10.9375 6.53125 11 6.75 11C6.9375 11 7.125 10.9375 7.25 10.7812L15 3.0625V6.5C15 6.9375 15.3125 7.25 15.75 7.25C16.1562 7.25 16.5 6.9375 16.5 6.5V1.25C16.5 0.84375 16.1562 0.5 15.75 0.5Z" fill="#0B2432"/>
</svg>
